<?xml version="1.0" encoding="UTF-8" standalone="no"?>
<!DOCTYPE svg PUBLIC "-//W3C//DTD SVG 1.1//EN"
 "http://www.w3.org/Graphics/SVG/1.1/DTD/svg11.dtd">
<!-- Generated by graphviz version 2.42.4 (0)
 -->
<!-- Title: pi_utils Pages: 1 -->
<svg width="981pt" height="337pt"
 viewBox="0.00 0.00 981.00 337.00" xmlns="http://www.w3.org/2000/svg" xmlns:xlink="http://www.w3.org/1999/xlink">
<g id="graph0" class="graph" transform="scale(1 1) rotate(0) translate(4 333)">
<title>pi_utils</title>
<polygon fill="white" stroke="transparent" points="-4,4 -4,-333 977,-333 977,4 -4,4"/>
<g id="clust1" class="cluster">
<title>cluster_app</title>
<polygon fill="#f0f0f0" stroke="black" points="391,-244 391,-321 876,-321 876,-244 391,-244"/>
<text text-anchor="middle" x="633.5" y="-305.8" font-family="Times,serif" font-size="14.00">pi_utils/</text>
</g>
<g id="clust2" class="cluster">
<title>cluster_panels</title>
<polygon fill="#ddeeff" stroke="black" points="8,-133 8,-225 550,-225 550,-133 8,-133"/>
<text text-anchor="middle" x="279" y="-209.8" font-family="Times,serif" font-size="14.00">pi_monitor panels</text>
</g>
<g id="clust3" class="cluster">
<title>cluster_pkgmgr</title>
<polygon fill="#eeffdd" stroke="black" points="558,-141.5 558,-216.5 836,-216.5 836,-141.5 558,-141.5"/>
<text text-anchor="middle" x="697" y="-201.3" font-family="Times,serif" font-size="14.00">Package Managers</text>
</g>
<g id="clust4" class="cluster">
<title>cluster_hw</title>
<polygon fill="#fff0dd" stroke="black" points="245,-8 245,-85 516,-85 516,-8 245,-8"/>
<text text-anchor="middle" x="380.5" y="-69.8" font-family="Times,serif" font-size="14.00">Raspberry Pi 5 Hardware</text>
</g>
<!-- MON -->
<g id="node1" class="node">
<title>MON</title>
<path fill="none" stroke="black" d="M497,-290C497,-290 411,-290 411,-290 405,-290 399,-284 399,-278 399,-278 399,-264 399,-264 399,-258 405,-252 411,-252 411,-252 497,-252 497,-252 503,-252 509,-258 509,-264 509,-264 509,-278 509,-278 509,-284 503,-290 497,-290"/>
<text text-anchor="middle" x="454" y="-274.8" font-family="Helvetica,sans-Serif" font-size="14.00">pi_monitor.py</text>
<text text-anchor="middle" x="454" y="-259.8" font-family="Helvetica,sans-Serif" font-size="14.00">(Live TUI)</text>
</g>
<!-- SYS -->
<g id="node4" class="node">
<title>SYS</title>
<path fill="none" stroke="black" d="M529.5,-194C529.5,-194 378.5,-194 378.5,-194 372.5,-194 366.5,-188 366.5,-182 366.5,-182 366.5,-153 366.5,-153 366.5,-147 372.5,-141 378.5,-141 378.5,-141 529.5,-141 529.5,-141 535.5,-141 541.5,-147 541.5,-153 541.5,-153 541.5,-182 541.5,-182 541.5,-188 535.5,-194 529.5,-194"/>
<text text-anchor="middle" x="454" y="-178.8" font-family="Helvetica,sans-Serif" font-size="14.00">System Table</text>
<text text-anchor="middle" x="454" y="-163.8" font-family="Helvetica,sans-Serif" font-size="14.00">CPU temp/freq/throttle</text>
<text text-anchor="middle" x="454" y="-148.8" font-family="Helvetica,sans-Serif" font-size="14.00">voltage · fan · memory</text>
</g>
<!-- MON&#45;&gt;SYS -->
<g id="edge1" class="edge">
<title>MON&#45;&gt;SYS</title>
<path fill="none" stroke="black" d="M454,-251.85C454,-238.66 454,-220.38 454,-204.29"/>
<polygon fill="black" stroke="black" points="457.5,-204.11 454,-194.11 450.5,-204.11 457.5,-204.11"/>
</g>
<!-- HAI -->
<g id="node5" class="node">
<title>HAI</title>
<path fill="none" stroke="black" d="M231.5,-186.5C231.5,-186.5 28.5,-186.5 28.5,-186.5 22.5,-186.5 16.5,-180.5 16.5,-174.5 16.5,-174.5 16.5,-160.5 16.5,-160.5 16.5,-154.5 22.5,-148.5 28.5,-148.5 28.5,-148.5 231.5,-148.5 231.5,-148.5 237.5,-148.5 243.5,-154.5 243.5,-160.5 243.5,-160.5 243.5,-174.5 243.5,-174.5 243.5,-180.5 237.5,-186.5 231.5,-186.5"/>
<text text-anchor="middle" x="130" y="-171.3" font-family="Helvetica,sans-Serif" font-size="14.00">Hailo Table</text>
<text text-anchor="middle" x="130" y="-156.3" font-family="Helvetica,sans-Serif" font-size="14.00">status · arch · firmware · temp</text>
</g>
<!-- MON&#45;&gt;HAI -->
<g id="edge2" class="edge">
<title>MON&#45;&gt;HAI</title>
<path fill="none" stroke="black" d="M398.98,-260.91C358.09,-253.39 301.28,-241.29 253,-225 225.8,-215.82 196.55,-202.54 173.4,-191.15"/>
<polygon fill="black" stroke="black" points="174.71,-187.9 164.2,-186.57 171.59,-194.16 174.71,-187.9"/>
</g>
<!-- PCI -->
<g id="node6" class="node">
<title>PCI</title>
<path fill="none" stroke="black" d="M336.5,-186.5C336.5,-186.5 273.5,-186.5 273.5,-186.5 267.5,-186.5 261.5,-180.5 261.5,-174.5 261.5,-174.5 261.5,-160.5 261.5,-160.5 261.5,-154.5 267.5,-148.5 273.5,-148.5 273.5,-148.5 336.5,-148.5 336.5,-148.5 342.5,-148.5 348.5,-154.5 348.5,-160.5 348.5,-160.5 348.5,-174.5 348.5,-174.5 348.5,-180.5 342.5,-186.5 336.5,-186.5"/>
<text text-anchor="middle" x="305" y="-171.3" font-family="Helvetica,sans-Serif" font-size="14.00">PCIe Table</text>
<text text-anchor="middle" x="305" y="-156.3" font-family="Helvetica,sans-Serif" font-size="14.00">devices</text>
</g>
<!-- MON&#45;&gt;PCI -->
<g id="edge3" class="edge">
<title>MON&#45;&gt;PCI</title>
<path fill="none" stroke="black" d="M406.12,-251.84C390.09,-244.67 372.6,-235.6 358,-225 346.12,-216.38 334.73,-204.83 325.58,-194.43"/>
<polygon fill="black" stroke="black" points="328.19,-192.1 319.04,-186.76 322.87,-196.64 328.19,-192.1"/>
</g>
<!-- CHK -->
<g id="node2" class="node">
<title>CHK</title>
<path fill="none" stroke="black" d="M706.5,-290C706.5,-290 539.5,-290 539.5,-290 533.5,-290 527.5,-284 527.5,-278 527.5,-278 527.5,-264 527.5,-264 527.5,-258 533.5,-252 539.5,-252 539.5,-252 706.5,-252 706.5,-252 712.5,-252 718.5,-258 718.5,-264 718.5,-264 718.5,-278 718.5,-278 718.5,-284 712.5,-290 706.5,-290"/>
<text text-anchor="middle" x="623" y="-274.8" font-family="Helvetica,sans-Serif" font-size="14.00">check_hailo_packages.py</text>
<text text-anchor="middle" x="623" y="-259.8" font-family="Helvetica,sans-Serif" font-size="14.00">(Package Auditor)</text>
</g>
<!-- APT -->
<g id="node7" class="node">
<title>APT</title>
<path fill="none" stroke="black" d="M816,-185.5C816,-185.5 752,-185.5 752,-185.5 746,-185.5 740,-179.5 740,-173.5 740,-173.5 740,-161.5 740,-161.5 740,-155.5 746,-149.5 752,-149.5 752,-149.5 816,-149.5 816,-149.5 822,-149.5 828,-155.5 828,-161.5 828,-161.5 828,-173.5 828,-173.5 828,-179.5 822,-185.5 816,-185.5"/>
<text text-anchor="middle" x="784" y="-163.8" font-family="Helvetica,sans-Serif" font-size="14.00">apt / dpkg</text>
</g>
<!-- CHK&#45;&gt;APT -->
<g id="edge7" class="edge">
<title>CHK&#45;&gt;APT</title>
<path fill="none" stroke="black" d="M678.88,-251.92C696.38,-244.93 715.22,-235.93 731,-225 743.51,-216.33 755.31,-204.29 764.59,-193.54"/>
<polygon fill="black" stroke="black" points="767.45,-195.58 771.17,-185.66 762.08,-191.1 767.45,-195.58"/>
</g>
<!-- PIP -->
<g id="node8" class="node">
<title>PIP</title>
<path fill="none" stroke="black" d="M637.5,-185.5C637.5,-185.5 578.5,-185.5 578.5,-185.5 572.5,-185.5 566.5,-179.5 566.5,-173.5 566.5,-173.5 566.5,-161.5 566.5,-161.5 566.5,-155.5 572.5,-149.5 578.5,-149.5 578.5,-149.5 637.5,-149.5 637.5,-149.5 643.5,-149.5 649.5,-155.5 649.5,-161.5 649.5,-161.5 649.5,-173.5 649.5,-173.5 649.5,-179.5 643.5,-185.5 637.5,-185.5"/>
<text text-anchor="middle" x="608" y="-163.8" font-family="Helvetica,sans-Serif" font-size="14.00">pip / pip3</text>
</g>
<!-- CHK&#45;&gt;PIP -->
<g id="edge8" class="edge">
<title>CHK&#45;&gt;PIP</title>
<path fill="none" stroke="black" d="M620.32,-251.85C618.02,-236.29 614.67,-213.64 612.05,-195.87"/>
<polygon fill="black" stroke="black" points="615.48,-195.19 610.56,-185.81 608.56,-196.22 615.48,-195.19"/>
</g>
<!-- PIPX -->
<g id="node9" class="node">
<title>PIPX</title>
<path fill="none" stroke="black" d="M710,-185.5C710,-185.5 680,-185.5 680,-185.5 674,-185.5 668,-179.5 668,-173.5 668,-173.5 668,-161.5 668,-161.5 668,-155.5 674,-149.5 680,-149.5 680,-149.5 710,-149.5 710,-149.5 716,-149.5 722,-155.5 722,-161.5 722,-161.5 722,-173.5 722,-173.5 722,-179.5 716,-185.5 710,-185.5"/>
<text text-anchor="middle" x="695" y="-163.8" font-family="Helvetica,sans-Serif" font-size="14.00">pipx</text>
</g>
<!-- CHK&#45;&gt;PIPX -->
<g id="edge9" class="edge">
<title>CHK&#45;&gt;PIPX</title>
<path fill="none" stroke="black" d="M638.17,-251.95C644.77,-243.87 652.48,-234.11 659,-225 666.05,-215.15 673.32,-203.97 679.46,-194.16"/>
<polygon fill="black" stroke="black" points="682.46,-195.97 684.75,-185.62 676.51,-192.28 682.46,-195.97"/>
</g>
<!-- FAN -->
<g id="node3" class="node">
<title>FAN</title>
<path fill="none" stroke="black" d="M855.5,-290C855.5,-290 748.5,-290 748.5,-290 742.5,-290 736.5,-284 736.5,-278 736.5,-278 736.5,-264 736.5,-264 736.5,-258 742.5,-252 748.5,-252 748.5,-252 855.5,-252 855.5,-252 861.5,-252 867.5,-258 867.5,-264 867.5,-264 867.5,-278 867.5,-278 867.5,-284 861.5,-290 855.5,-290"/>
<text text-anchor="middle" x="802" y="-274.8" font-family="Helvetica,sans-Serif" font-size="14.00">fan_overlays.md</text>
<text text-anchor="middle" x="802" y="-259.8" font-family="Helvetica,sans-Serif" font-size="14.00">(Fan Reference)</text>
</g>
<!-- SOC -->
<g id="node10" class="node">
<title>SOC</title>
<path fill="none" stroke="black" d="M495.5,-53C495.5,-53 396.5,-53 396.5,-53 390.5,-53 384.5,-47 384.5,-41 384.5,-41 384.5,-29 384.5,-29 384.5,-23 390.5,-17 396.5,-17 396.5,-17 495.5,-17 495.5,-17 501.5,-17 507.5,-23 507.5,-29 507.5,-29 507.5,-41 507.5,-41 507.5,-47 501.5,-53 495.5,-53"/>
<text text-anchor="middle" x="446" y="-31.3" font-family="Helvetica,sans-Serif" font-size="14.00">SoC · CPU · Fan</text>
</g>
<!-- FAN&#45;&gt;SOC -->
<g id="edge10" class="edge">
<title>FAN&#45;&gt;SOC</title>
<path fill="none" stroke="black" stroke-dasharray="5,2" d="M822.42,-251.81C829.39,-244.29 836.35,-234.99 840,-225 854.04,-186.6 865.22,-165.18 840,-133 800.68,-82.83 620.05,-55.12 517.56,-43.18"/>
<polygon fill="black" stroke="black" points="517.92,-39.7 507.58,-42.04 517.12,-46.66 517.92,-39.7"/>
<text text-anchor="middle" x="914" y="-163.8" font-family="Times,serif" font-size="14.00">sysfs / config.txt</text>
</g>
<!-- SYS&#45;&gt;SOC -->
<g id="edge4" class="edge">
<title>SYS&#45;&gt;SOC</title>
<path fill="none" stroke="black" d="M452.42,-140.72C451.04,-118.27 449.06,-85.85 447.66,-63.04"/>
<polygon fill="black" stroke="black" points="451.15,-62.78 447.04,-53.01 444.16,-63.2 451.15,-62.78"/>
<text text-anchor="middle" x="487.5" y="-111.8" font-family="Times,serif" font-size="14.00">vcgencmd</text>
<text text-anchor="middle" x="487.5" y="-96.8" font-family="Times,serif" font-size="14.00">sysfs</text>
</g>
<!-- HAILO_HW -->
<g id="node11" class="node">
<title>HAILO_HW</title>
<path fill="none" stroke="black" d="M354.5,-54C354.5,-54 265.5,-54 265.5,-54 259.5,-54 253.5,-48 253.5,-42 253.5,-42 253.5,-28 253.5,-28 253.5,-22 259.5,-16 265.5,-16 265.5,-16 354.5,-16 354.5,-16 360.5,-16 366.5,-22 366.5,-28 366.5,-28 366.5,-42 366.5,-42 366.5,-48 360.5,-54 354.5,-54"/>
<text text-anchor="middle" x="310" y="-38.8" font-family="Helvetica,sans-Serif" font-size="14.00">Hailo AI HAT+</text>
<text text-anchor="middle" x="310" y="-23.8" font-family="Helvetica,sans-Serif" font-size="14.00">(PCIe)</text>
</g>
<!-- HAI&#45;&gt;HAILO_HW -->
<g id="edge5" class="edge">
<title>HAI&#45;&gt;HAILO_HW</title>
<path fill="none" stroke="black" d="M155.03,-148.35C186.64,-125.43 241.16,-85.91 276.38,-60.37"/>
<polygon fill="black" stroke="black" points="278.85,-62.9 284.89,-54.2 274.74,-57.24 278.85,-62.9"/>
<text text-anchor="middle" x="262" y="-104.3" font-family="Times,serif" font-size="14.00">hailortcli</text>
</g>
<!-- PCI&#45;&gt;HAILO_HW -->
<g id="edge6" class="edge">
<title>PCI&#45;&gt;HAILO_HW</title>
<path fill="none" stroke="black" d="M305.7,-148.35C306.53,-126.66 307.93,-90.09 308.9,-64.59"/>
<polygon fill="black" stroke="black" points="312.41,-64.54 309.29,-54.41 305.41,-64.27 312.41,-64.54"/>
<text text-anchor="middle" x="324" y="-104.3" font-family="Times,serif" font-size="14.00">lspci</text>
</g>
</g>
</svg>
